<svg xmlns="http://www.w3.org/2000/svg" viewBox="0 0 511.02 299.76"><defs><style>.cls-1{fill:#fff;}</style></defs><g id="Laag_2" data-name="Laag 2"><g id="Laag_1-2" data-name="Laag 1"><path class="cls-1" d="M511,59.18v181.4a8.15,8.15,0,0,0-.79,1.8c-3.32,19.12-26.89,35.44-50.77,21.57-27.71-16.09-55.62-31.84-83.34-47.9a6.81,6.81,0,0,1-3-4.89q-.25-61.51,0-123a6.35,6.35,0,0,1,2.49-4.7c28.85-16.77,57.66-33.63,86.81-49.86,10.56-5.88,21.77-4.92,32.32,1.26C504.08,40.31,508.73,49,511,59.18ZM285,299.7a76,76,0,0,0,13.42-.82c28.1-5.1,46.57-27.78,46.61-57.36q.14-91.67,0-183.34a66.22,66.22,0,0,0-1.31-13.85C337.86,17.29,316,.17,287,.06c-31.76-.12-63.53,0-95.29,0-44.57,0-89.14-.09-133.7,0C23.9.17,0,24.16,0,58.18q0,91.67.06,183.35a66.13,66.13,0,0,0,1.46,14.8C7.68,282.69,29.72,299.61,58,299.7c38.08.11,76.16,0,114.24,0Q228.62,299.73,285,299.7Z"/></g></g></svg>