<svg id="Laag_1" data-name="Laag 1" xmlns="http://www.w3.org/2000/svg" viewBox="0 0 510.85 243.64"><defs><style>.cls-1{fill:#fff;}</style></defs><path class="cls-1" d="M495.93,239.06c-5.14,3-10.2,3.21-15.45-.09Q439.17,213,397.81,187c-12.82-8-12.86-20.46,0-28.27,6.1-3.69,12.43-7,19.8-11.13-8.3-10.06-15.29-19.6-23.38-28C367,91.22,334,72.24,295.47,63.91s-76.32-4.85-113,9.81c-40,16-71.56,42.39-94.55,78.76a190,190,0,0,0-27.51,75.84c-2,13.91-11.61,18.82-24.14,12.78-8.09-3.89-16.13-7.6-24.27-11.63s-11-9.4-9.37-18.21C15,143.11,49.37,88.53,105.39,48,152.92,13.68,206.56-3.14,265.13,0c84.45,4.5,151.5,42,200.42,111.23.85,1.22,1.72,2.43,3.58,5.07,5.39-3.59,10.39-7.1,15.63-10.38s10.7-4.39,16.48-1,7.69,8.76,7.37,15.25q-2.5,52.28-5.11,104.51C503.21,230.57,501.42,235.85,495.93,239.06Z"/></svg>