<svg id="Laag_1" data-name="Laag 1" xmlns="http://www.w3.org/2000/svg" viewBox="0 0 510.85 243.64"><defs><style>.cls-1{fill:#fff;}</style></defs><path class="cls-1" d="M14.92,239.06c5.14,3,10.2,3.21,15.45-.09Q71.68,213,113,187c12.82-8,12.86-20.46,0-28.27-6.1-3.69-12.43-7-19.8-11.13,8.3-10.06,15.29-19.6,23.38-28,27.29-28.4,60.24-47.38,98.79-55.71s76.32-4.85,113,9.81c40,16,71.56,42.39,94.55,78.76a190,190,0,0,1,27.51,75.84c1.95,13.91,11.61,18.82,24.14,12.78,8.09-3.89,16.13-7.6,24.27-11.63s11-9.4,9.37-18.21C495.82,143.11,461.48,88.53,405.46,48,357.93,13.68,304.29-3.14,245.72,0,161.27,4.5,94.22,42,45.3,111.23c-.85,1.22-1.72,2.43-3.58,5.07-5.39-3.59-10.39-7.1-15.63-10.38s-10.7-4.39-16.48-1-7.69,8.76-7.37,15.25Q4.75,172.5,7.35,224.73C7.64,230.57,9.43,235.85,14.92,239.06Z"/></svg>