<svg xmlns="http://www.w3.org/2000/svg" viewBox="0 0 510.85 511.07"><defs><style>.cls-1{fill:#fff;}</style></defs><g id="Laag_2" data-name="Laag 2"><g id="Laag_1-2" data-name="Laag 1"><path class="cls-1" d="M240.36,511.07c-9.36-1.29-18.76-2.29-28.06-3.9-47.49-8.24-89.22-28.59-125.54-60.18l-6-5.23c-4.42,4.68-8.73,9.24-13,13.81S58.11,462,52,460.1c-6-1.83-9.17-6.23-10.39-12.23-6.9-34.19-14-68.35-20.65-102.58-2.86-14.63,7.45-22.86,21.54-18.19,30.09,10,60.3,19.6,90.45,29.39,9.24,3,13.92,8.67,12.45,16.54a22.8,22.8,0,0,1-5.49,10.22c-4.84,5.44-10.36,10.25-16.51,16.21,10.12,7.49,19.16,15.06,29,21.31,33.16,21,69.53,31.38,108.8,30.22,39.78-1.18,75.88-13.81,108.11-37.2,34.72-25.2,58.81-58.32,72.22-99a187.69,187.69,0,0,0,8.21-80.72c-1.53-13.49,6.61-20.86,19.94-18.31,8.48,1.62,16.94,3.38,25.38,5.19,10.69,2.29,14.23,6.43,15.07,17.26a42.56,42.56,0,0,0,.74,4.33v28a34.57,34.57,0,0,0-.87,4.33c-2.86,39.67-14.36,76.74-35.08,110.59-40.56,66.25-99,107.15-175.55,121.66-9.59,1.82-19.36,2.7-29.05,4ZM425.3,64.56C361,9.31,286.84-10.75,203.84,5.43,146.26,16.64,98.33,46,60.58,90.88,16.1,143.8-3.93,205.09.63,274.21c.59,8.93,4.64,13.45,13.52,15.38s17.58,3.57,26.37,5.38c13.63,2.8,21.8-4.31,20.31-18.27a189.81,189.81,0,0,1,8.23-80.26c13.45-40.87,37.63-74.14,72.55-99.4,32-23.14,67.78-35.7,107.2-37s76,9.09,109.38,30c9.9,6.2,19,13.75,29.5,21.49-6.15,5.79-11.48,10.55-16.5,15.61-10.61,10.71-7.54,22.75,6.85,27.43q46.43,15.1,92.82,30.25c5.89,1.93,10.75.51,15-3.67,4.55-4.45,5-10,3.86-15.74Q479.54,114.11,469.25,62.8c-1.27-6.37-4.42-11.07-10.86-13s-11.46.47-15.75,4.93S434.36,63.81,430,68.6C427.56,66.49,426.42,65.53,425.3,64.56Z"/></g></g></svg>